<?xml version="1.0" encoding="UTF-8"?>
<!DOCTYPE svg PUBLIC "-//W3C//DTD SVG 1.1//EN" "http://www.w3.org/Graphics/SVG/1.1/DTD/svg11.dtd">
<svg xmlns="http://www.w3.org/2000/svg" version="1.1" width="190px" height="47px" style="shape-rendering:geometricPrecision; text-rendering:geometricPrecision; image-rendering:optimizeQuality; fill-rule:evenodd; clip-rule:evenodd" xmlns:xlink="http://www.w3.org/1999/xlink">
<g><path style="opacity:1" fill="#f27984" d="M 7.5,24.5 C 6.66175,24.1583 6.32842,23.4916 6.5,22.5C 6.37752,19.7079 5.04419,17.7079 2.5,16.5C 2.33449,12.4862 2.50115,8.48617 3,4.5C 3.8926,3.91858 4.8926,3.58524 6,3.5C 9.84579,4.84118 13.3458,6.84118 16.5,9.5C 12.4383,9.8931 9.4383,11.8931 7.5,15.5C 8.68884,16.4287 10.0222,16.762 11.5,16.5C 11.5,17.5 11.5,18.5 11.5,19.5C 6.16667,19.8333 6.16667,20.1667 11.5,20.5C 11.5,21.5 11.5,22.5 11.5,23.5C 9.90097,23.2322 8.56764,23.5655 7.5,24.5 Z"/></g>
<g><path style="opacity:0.873" fill="#f4f4f4" d="M 38.5,11.5 C 42.8333,11.5 47.1667,11.5 51.5,11.5C 51.5,12.8333 51.5,14.1667 51.5,15.5C 48.8333,15.5 46.1667,15.5 43.5,15.5C 43.5,16.8333 43.5,18.1667 43.5,19.5C 45.8333,19.5 48.1667,19.5 50.5,19.5C 50.5,20.8333 50.5,22.1667 50.5,23.5C 48.1667,23.5 45.8333,23.5 43.5,23.5C 43.5,24.8333 43.5,26.1667 43.5,27.5C 46.1667,27.5 48.8333,27.5 51.5,27.5C 51.5,28.8333 51.5,30.1667 51.5,31.5C 47.1667,31.5 42.8333,31.5 38.5,31.5C 38.5,24.8333 38.5,18.1667 38.5,11.5 Z"/></g>
<g><path style="opacity:0.834" fill="#f4f4f4" d="M 96.5,11.5 C 100.514,11.3345 104.514,11.5012 108.5,12C 112.489,15.9546 112.489,19.9546 108.5,24C 106.19,24.4966 103.857,24.6633 101.5,24.5C 101.5,26.8333 101.5,29.1667 101.5,31.5C 99.8333,31.5 98.1667,31.5 96.5,31.5C 96.5,24.8333 96.5,18.1667 96.5,11.5 Z M 101.5,15.5 C 103.167,15.5 104.833,15.5 106.5,15.5C 107.167,19.5 105.5,21.1667 101.5,20.5C 101.5,18.8333 101.5,17.1667 101.5,15.5 Z"/></g>
<g><path style="opacity:0.891" fill="#f5f5f5" d="M 66.5,12.5 C 68.1667,12.5 69.8333,12.5 71.5,12.5C 71.5,14.5 71.5,16.5 71.5,18.5C 73.7925,18.2436 75.9592,18.5769 78,19.5C 79.2662,23.3951 79.7662,27.3951 79.5,31.5C 77.8333,31.5 76.1667,31.5 74.5,31.5C 74.5,28.5 74.5,25.5 74.5,22.5C 73.5,22.5 72.5,22.5 71.5,22.5C 71.5,25.5 71.5,28.5 71.5,31.5C 69.8333,31.5 68.1667,31.5 66.5,31.5C 66.5,25.1667 66.5,18.8333 66.5,12.5 Z"/></g>
<g><path style="opacity:0.856" fill="#f5f5f5" d="M 135.5,12.5 C 136.833,12.5 138.167,12.5 139.5,12.5C 139.5,18.8333 139.5,25.1667 139.5,31.5C 136.316,31.1669 132.982,31.0002 129.5,31C 127.006,27.3527 126.84,23.5193 129,19.5C 131.041,18.5769 133.208,18.2436 135.5,18.5C 135.5,16.5 135.5,14.5 135.5,12.5 Z M 133.5,21.5 C 135.94,23.5726 136.106,25.906 134,28.5C 130.879,26.3262 130.712,23.9928 133.5,21.5 Z"/></g>
<g><path style="opacity:0.817" fill="#f4f4f4" d="M 180.5,14.5 C 181.833,14.5 183.167,14.5 184.5,14.5C 184.5,15.8333 184.5,17.1667 184.5,18.5C 185.5,18.5 186.5,18.5 187.5,18.5C 187.5,19.5 187.5,20.5 187.5,21.5C 186.5,21.5 185.5,21.5 184.5,21.5C 184.338,23.5273 184.505,25.5273 185,27.5C 189.335,29.4047 189.335,30.7381 185,31.5C 183.564,31.4411 182.231,31.1078 181,30.5C 180.502,27.5184 180.335,24.5184 180.5,21.5C 177.838,22.6393 175.171,22.8059 172.5,22C 174.448,22.9832 176.282,24.1498 178,25.5C 178.825,27.7008 178.325,29.5341 176.5,31C 173.208,31.9357 170.208,31.4357 167.5,29.5C 167.887,28.2801 168.72,27.6135 170,27.5C 171.465,28.3295 172.965,28.4962 174.5,28C 172.751,26.7085 170.918,25.5418 169,24.5C 168.333,22.8333 168.333,21.1667 169,19.5C 172,18.1667 175,18.1667 178,19.5C 179.892,18.3826 180.725,16.7159 180.5,14.5 Z"/></g>
<g><path style="opacity:1" fill="#da6f6c" d="M 24.5,14.5 C 22.744,15.5521 22.0773,17.2188 22.5,19.5C 20.5714,19.7692 18.9047,19.2692 17.5,18C 18.5634,16.8118 19.8967,16.3118 21.5,16.5C 19.8854,12.1383 20.8854,11.4716 24.5,14.5 Z"/></g>
<g><path style="opacity:1" fill="#f39a70" d="M 24.5,14.5 C 28.1894,16.0969 31.6894,18.0969 35,20.5C 35.6667,22.1667 35.6667,23.8333 35,25.5C 34.3292,26.2524 33.4959,26.5858 32.5,26.5C 30.1667,26.5 27.8333,26.5 25.5,26.5C 24.8333,26.5 24.5,26.1667 24.5,25.5C 24.405,23.2143 23.7384,21.2143 22.5,19.5C 22.0773,17.2188 22.744,15.5521 24.5,14.5 Z"/></g>
<g><path style="opacity:0.822" fill="#f4f4f4" d="M 57.5,18.5 C 60.3965,18.1253 63.0632,18.6253 65.5,20C 64.4776,22.3163 62.9776,22.8163 61,21.5C 57.985,23.5161 57.8184,25.6828 60.5,28C 61.8333,28 63.1667,28 64.5,28C 65.8333,29 65.8333,30 64.5,31C 56.3333,32.8333 53.1667,29.6667 55,21.5C 55.6979,20.3094 56.5313,19.3094 57.5,18.5 Z"/></g>
<g><path style="opacity:0.815" fill="#f4f4f4" d="M 84.5,18.5 C 90.3645,16.9547 93.6978,19.1213 94.5,25C 93.6852,31.0395 90.3519,33.0395 84.5,31C 83.6919,30.6924 83.0253,30.1924 82.5,29.5C 80.7668,25.2679 81.4334,21.6013 84.5,18.5 Z M 86.5,21.5 C 88.7224,21.5587 89.7224,22.7253 89.5,25C 88.491,29.351 87.1576,29.5177 85.5,25.5C 85.8457,24.1508 86.179,22.8175 86.5,21.5 Z"/></g>
<g><path style="opacity:0.815" fill="#f4f4f4" d="M 116.5,18.5 C 122.364,16.9547 125.698,19.1213 126.5,25C 125.685,31.0395 122.352,33.0395 116.5,31C 115.692,30.6924 115.025,30.1924 114.5,29.5C 112.767,25.2679 113.433,21.6013 116.5,18.5 Z M 118.5,21.5 C 120.722,21.5587 121.722,22.7253 121.5,25C 120.491,29.351 119.158,29.5177 117.5,25.5C 117.846,24.1508 118.179,22.8175 118.5,21.5 Z"/></g>
<g><path style="opacity:0.822" fill="#f4f4f4" d="M 145.5,18.5 C 148.397,18.1253 151.063,18.6253 153.5,20C 152.478,22.3163 150.978,22.8163 149,21.5C 145.985,23.5161 145.818,25.6828 148.5,28C 149.833,28 151.167,28 152.5,28C 153.833,29 153.833,30 152.5,31C 144.333,32.8333 141.167,29.6667 143,21.5C 143.698,20.3094 144.531,19.3094 145.5,18.5 Z"/></g>
<g><path style="opacity:0.834" fill="#f4f4f4" d="M 156.5,18.5 C 159.685,18.0196 162.519,18.6863 165,20.5C 165.499,24.1516 165.665,27.8183 165.5,31.5C 162.068,31.4096 158.568,31.0763 155,30.5C 153.872,25.2883 156.039,22.7883 161.5,23C 160.975,22.3076 160.308,21.8076 159.5,21.5C 154.979,22.9914 153.979,21.9914 156.5,18.5 Z M 158.5,26.5 C 161.797,26.3287 162.131,26.9954 159.5,28.5C 158.702,28.0431 158.369,27.3764 158.5,26.5 Z"/></g>
<g><path style="opacity:1" fill="#f25a60" d="M 2.5,16.5 C 5.04419,17.7079 6.37752,19.7079 6.5,22.5C 5.16667,23.5 3.83333,24.5 2.5,25.5C 2.5,22.5 2.5,19.5 2.5,16.5 Z"/></g>
<g><path style="opacity:1" fill="#eb8177" d="M 22.5,19.5 C 23.7384,21.2143 24.405,23.2143 24.5,25.5C 22.2646,25.2053 20.2646,25.5386 18.5,26.5C 17.9569,26.44 17.6236,26.1067 17.5,25.5C 19.0777,24.7022 20.7444,24.2022 22.5,24C 15.8946,22.3076 15.8946,20.8076 22.5,19.5 Z"/></g>
<g><path style="opacity:1" fill="#d16047" d="M 25.5,26.5 C 27.8333,26.5 30.1667,26.5 32.5,26.5C 30.178,28.664 27.5113,30.3307 24.5,31.5C 25.3007,29.9582 25.634,28.2915 25.5,26.5 Z"/></g>
<g><path style="opacity:1" fill="#eb5253" d="M 18.5,26.5 C 20.2646,25.5386 22.2646,25.2053 24.5,25.5C 24.5,26.1667 24.8333,26.5 25.5,26.5C 25.634,28.2915 25.3007,29.9582 24.5,31.5C 22.8235,30.8166 22.1568,29.4832 22.5,27.5C 21.4324,26.5655 20.099,26.2322 18.5,26.5 Z"/></g>
<g><path style="opacity:1" fill="#fa7d70" d="M 6.5,22.5 C 6.32842,23.4916 6.66175,24.1583 7.5,24.5C 12.6945,24.9417 12.6945,25.9417 7.5,27.5C 8.25987,29.3604 9.25987,31.027 10.5,32.5C 9.95691,32.56 9.62358,32.8933 9.5,33.5C 10.6888,34.4287 12.0222,34.762 13.5,34.5C 13.5,35.5 13.5,36.5 13.5,37.5C 12.1779,37.67 11.0113,37.3366 10,36.5C 8.24186,38.7655 6.07519,40.4322 3.5,41.5C 2.51192,36.3595 2.17859,31.0262 2.5,25.5C 3.83333,24.5 5.16667,23.5 6.5,22.5 Z"/></g>
<g><path style="opacity:1" fill="#e1766c" d="M 22.5,27.5 C 22.1568,29.4832 22.8235,30.8166 24.5,31.5C 21.842,34.4226 18.6754,35.756 15,35.5C 14.5172,36.448 14.3505,37.448 14.5,38.5C 11.9158,38.5688 9.91577,39.7355 8.5,42C 6.61305,42.7796 4.94639,42.6129 3.5,41.5C 6.07519,40.4322 8.24186,38.7655 10,36.5C 11.0113,37.3366 12.1779,37.67 13.5,37.5C 13.5,36.5 13.5,35.5 13.5,34.5C 12.0222,34.762 10.6888,34.4287 9.5,33.5C 9.62358,32.8933 9.95691,32.56 10.5,32.5C 16.1911,34.6498 20.1911,32.9832 22.5,27.5 Z"/></g>
</svg>
