<?xml version="1.0" encoding="UTF-8"?>
<!DOCTYPE svg PUBLIC "-//W3C//DTD SVG 1.1//EN" "http://www.w3.org/Graphics/SVG/1.1/DTD/svg11.dtd">
<svg xmlns="http://www.w3.org/2000/svg" version="1.1" width="183px" height="47px" style="shape-rendering:geometricPrecision; text-rendering:geometricPrecision; image-rendering:optimizeQuality; fill-rule:evenodd; clip-rule:evenodd" xmlns:xlink="http://www.w3.org/1999/xlink">
<g><path style="opacity:1" fill="#f27984" d="M 4.5,24.5 C 3.66175,24.1583 3.32842,23.4916 3.5,22.5C 3.37752,19.7079 2.04419,17.7079 -0.5,16.5C -0.5,12.5 -0.5,8.5 -0.5,4.5C 1.40239,3.48905 3.40239,3.32239 5.5,4C 8.02923,6.02855 10.6959,7.86188 13.5,9.5C 9.4383,9.8931 6.4383,11.8931 4.5,15.5C 5.68884,16.4287 7.02218,16.762 8.5,16.5C 8.5,17.5 8.5,18.5 8.5,19.5C 3.16667,19.8333 3.16667,20.1667 8.5,20.5C 8.5,21.5 8.5,22.5 8.5,23.5C 6.90097,23.2322 5.56764,23.5655 4.5,24.5 Z"/></g>
<g><path style="opacity:0.681" fill="#fefefe" d="M 60.5,13.5 C 62.1667,13.5 63.8333,13.5 65.5,13.5C 65.5,15.5 65.5,17.5 65.5,19.5C 67.7925,19.2436 69.9592,19.5769 72,20.5C 73.2662,24.3951 73.7662,28.3951 73.5,32.5C 71.8333,32.5 70.1667,32.5 68.5,32.5C 68.5,29.5 68.5,26.5 68.5,23.5C 67.5,23.5 66.5,23.5 65.5,23.5C 65.5,26.5 65.5,29.5 65.5,32.5C 63.8333,32.5 62.1667,32.5 60.5,32.5C 60.5,26.1667 60.5,19.8333 60.5,13.5 Z"/></g>
<g><path style="opacity:0.796" fill="#fefefe" d="M 126.5,13.5 C 127.833,13.5 129.167,13.5 130.5,13.5C 130.5,19.8333 130.5,26.1667 130.5,32.5C 127.316,32.1669 123.982,32.0002 120.5,32C 118.006,28.3527 117.84,24.5193 120,20.5C 122.041,19.5769 124.208,19.2436 126.5,19.5C 126.5,17.5 126.5,15.5 126.5,13.5 Z M 124.5,22.5 C 126.94,24.5726 127.106,26.906 125,29.5C 121.879,27.3262 121.712,24.9928 124.5,22.5 Z"/></g>
<g><path style="opacity:0.905" fill="#fefefe" d="M 35.5,15.5 C 39.1667,15.5 42.8333,15.5 46.5,15.5C 46.5,16.5 46.5,17.5 46.5,18.5C 44.1667,18.5 41.8333,18.5 39.5,18.5C 39.5,19.8333 39.5,21.1667 39.5,22.5C 41.5,22.5 43.5,22.5 45.5,22.5C 45.5,23.5 45.5,24.5 45.5,25.5C 43.5,25.5 41.5,25.5 39.5,25.5C 39.5,26.8333 39.5,28.1667 39.5,29.5C 41.8333,29.5 44.1667,29.5 46.5,29.5C 46.5,30.5 46.5,31.5 46.5,32.5C 42.8333,32.5 39.1667,32.5 35.5,32.5C 35.5,26.8333 35.5,21.1667 35.5,15.5 Z"/></g>
<g><path style="opacity:0.826" fill="#fefefe" d="M 90.5,15.5 C 93.8499,15.335 97.1832,15.5017 100.5,16C 104.485,19.286 104.485,22.6193 100.5,26C 98.5273,26.4955 96.5273,26.6621 94.5,26.5C 94.5,28.5 94.5,30.5 94.5,32.5C 93.1667,32.5 91.8333,32.5 90.5,32.5C 90.5,26.8333 90.5,21.1667 90.5,15.5 Z M 94.5,18.5 C 98.1612,18.3501 99.1612,19.8501 97.5,23C 96.552,23.4828 95.552,23.6495 94.5,23.5C 94.5,21.8333 94.5,20.1667 94.5,18.5 Z"/></g>
<g><path style="opacity:0.738" fill="#fefefe" d="M 171.5,15.5 C 172.833,15.5 174.167,15.5 175.5,15.5C 175.5,16.8333 175.5,18.1667 175.5,19.5C 176.5,19.5 177.5,19.5 178.5,19.5C 178.5,20.5 178.5,21.5 178.5,22.5C 177.5,22.5 176.5,22.5 175.5,22.5C 175.338,24.5273 175.505,26.5273 176,28.5C 180.335,30.4047 180.335,31.7381 176,32.5C 174.564,32.4411 173.231,32.1078 172,31.5C 171.502,28.5184 171.335,25.5184 171.5,22.5C 168.838,23.6393 166.171,23.8059 163.5,23C 165.448,23.9832 167.282,25.1498 169,26.5C 169.825,28.7008 169.325,30.5341 167.5,32C 164.208,32.9357 161.208,32.4357 158.5,30.5C 158.887,29.2801 159.72,28.6135 161,28.5C 162.465,29.3295 163.965,29.4962 165.5,29C 163.751,27.7085 161.918,26.5418 160,25.5C 159.333,23.8333 159.333,22.1667 160,20.5C 163,19.1667 166,19.1667 169,20.5C 170.892,19.3826 171.725,17.7159 171.5,15.5 Z"/></g>
<g><path style="opacity:1" fill="#da6f6c" d="M 21.5,14.5 C 19.744,15.5521 19.0773,17.2188 19.5,19.5C 17.5714,19.7692 15.9047,19.2692 14.5,18C 15.5634,16.8118 16.8967,16.3118 18.5,16.5C 16.8854,12.1383 17.8854,11.4716 21.5,14.5 Z"/></g>
<g><path style="opacity:1" fill="#f39a70" d="M 21.5,14.5 C 25.1894,16.0969 28.6894,18.0969 32,20.5C 32.6667,22.1667 32.6667,23.8333 32,25.5C 31.3292,26.2524 30.4959,26.5858 29.5,26.5C 27.1667,26.5 24.8333,26.5 22.5,26.5C 21.8333,26.5 21.5,26.1667 21.5,25.5C 21.405,23.2143 20.7384,21.2143 19.5,19.5C 19.0773,17.2188 19.744,15.5521 21.5,14.5 Z"/></g>
<g><path style="opacity:1" fill="#f25a60" d="M -0.5,16.5 C 2.04419,17.7079 3.37752,19.7079 3.5,22.5C 2.16667,23.5 0.833333,24.5 -0.5,25.5C -0.5,22.5 -0.5,19.5 -0.5,16.5 Z"/></g>
<g><path style="opacity:0.726" fill="#fefefe" d="M 51.5,19.5 C 54.3965,19.1253 57.0632,19.6253 59.5,21C 58.4776,23.3163 56.9776,23.8163 55,22.5C 51.985,24.5161 51.8184,26.6828 54.5,29C 55.8333,29 57.1667,29 58.5,29C 59.8333,30 59.8333,31 58.5,32C 50.3333,33.8333 47.1667,30.6667 49,22.5C 49.6979,21.3094 50.5313,20.3094 51.5,19.5 Z"/></g>
<g><path style="opacity:0.759" fill="#fefefe" d="M 78.5,19.5 C 84.3645,17.9547 87.6978,20.1213 88.5,26C 87.6852,32.0395 84.3519,34.0395 78.5,32C 77.6919,31.6924 77.0253,31.1924 76.5,30.5C 74.7668,26.2679 75.4334,22.6013 78.5,19.5 Z M 80.5,22.5 C 82.7224,22.5587 83.7224,23.7253 83.5,26C 82.491,30.351 81.1576,30.5177 79.5,26.5C 79.8457,25.1508 80.179,23.8175 80.5,22.5 Z"/></g>
<g><path style="opacity:0.759" fill="#fefefe" d="M 107.5,19.5 C 113.364,17.9547 116.698,20.1213 117.5,26C 116.685,32.0395 113.352,34.0395 107.5,32C 106.692,31.6924 106.025,31.1924 105.5,30.5C 103.767,26.2679 104.433,22.6013 107.5,19.5 Z M 109.5,22.5 C 111.722,22.5587 112.722,23.7253 112.5,26C 111.491,30.351 110.158,30.5177 108.5,26.5C 108.846,25.1508 109.179,23.8175 109.5,22.5 Z"/></g>
<g><path style="opacity:0.726" fill="#fefefe" d="M 136.5,19.5 C 139.397,19.1253 142.063,19.6253 144.5,21C 143.478,23.3163 141.978,23.8163 140,22.5C 136.985,24.5161 136.818,26.6828 139.5,29C 140.833,29 142.167,29 143.5,29C 144.833,30 144.833,31 143.5,32C 135.333,33.8333 132.167,30.6667 134,22.5C 134.698,21.3094 135.531,20.3094 136.5,19.5 Z"/></g>
<g><path style="opacity:0.782" fill="#fefefe" d="M 147.5,19.5 C 150.685,19.0196 153.519,19.6863 156,21.5C 156.499,25.1516 156.665,28.8183 156.5,32.5C 153.068,32.4096 149.568,32.0763 146,31.5C 144.872,26.2883 147.039,23.7883 152.5,24C 151.975,23.3076 151.308,22.8076 150.5,22.5C 145.979,23.9914 144.979,22.9914 147.5,19.5 Z M 149.5,27.5 C 152.797,27.3287 153.131,27.9954 150.5,29.5C 149.702,29.0431 149.369,28.3764 149.5,27.5 Z"/></g>
<g><path style="opacity:1" fill="#eb8177" d="M 19.5,19.5 C 20.7384,21.2143 21.405,23.2143 21.5,25.5C 19.2646,25.2053 17.2646,25.5386 15.5,26.5C 14.9569,26.44 14.6236,26.1067 14.5,25.5C 16.0777,24.7022 17.7444,24.2022 19.5,24C 12.8946,22.3076 12.8946,20.8076 19.5,19.5 Z"/></g>
<g><path style="opacity:1" fill="#d16047" d="M 22.5,26.5 C 24.8333,26.5 27.1667,26.5 29.5,26.5C 27.178,28.664 24.5113,30.3307 21.5,31.5C 22.3007,29.9582 22.634,28.2915 22.5,26.5 Z"/></g>
<g><path style="opacity:1" fill="#eb5253" d="M 15.5,26.5 C 17.2646,25.5386 19.2646,25.2053 21.5,25.5C 21.5,26.1667 21.8333,26.5 22.5,26.5C 22.634,28.2915 22.3007,29.9582 21.5,31.5C 19.8235,30.8166 19.1568,29.4832 19.5,27.5C 18.4324,26.5655 17.099,26.2322 15.5,26.5 Z"/></g>
<g><path style="opacity:1" fill="#fa7d70" d="M 3.5,22.5 C 3.32842,23.4916 3.66175,24.1583 4.5,24.5C 9.69446,24.9417 9.69446,25.9417 4.5,27.5C 5.25987,29.3604 6.25987,31.027 7.5,32.5C 6.95691,32.56 6.62358,32.8933 6.5,33.5C 7.68884,34.4287 9.02218,34.762 10.5,34.5C 10.5,35.5 10.5,36.5 10.5,37.5C 9.17793,37.67 8.01127,37.3366 7,36.5C 5.24186,38.7655 3.07519,40.4322 0.5,41.5C 0.166667,41.5 -0.166667,41.5 -0.5,41.5C -0.5,36.1667 -0.5,30.8333 -0.5,25.5C 0.833333,24.5 2.16667,23.5 3.5,22.5 Z"/></g>
<g><path style="opacity:1" fill="#e1766c" d="M 19.5,27.5 C 19.1568,29.4832 19.8235,30.8166 21.5,31.5C 18.842,34.4226 15.6754,35.756 12,35.5C 11.5172,36.448 11.3505,37.448 11.5,38.5C 8.91577,38.5688 6.91577,39.7355 5.5,42C 3.61305,42.7796 1.94639,42.6129 0.5,41.5C 3.07519,40.4322 5.24186,38.7655 7,36.5C 8.01127,37.3366 9.17793,37.67 10.5,37.5C 10.5,36.5 10.5,35.5 10.5,34.5C 9.02218,34.762 7.68884,34.4287 6.5,33.5C 6.62358,32.8933 6.95691,32.56 7.5,32.5C 13.1911,34.6498 17.1911,32.9832 19.5,27.5 Z"/></g>
</svg>
